<?xml version="1.0" standalone="no"?>
<!DOCTYPE svg PUBLIC "-//W3C//DTD SVG 20010904//EN"
 "http://www.w3.org/TR/2001/REC-SVG-20010904/DTD/svg10.dtd">
<svg version="1.0" xmlns="http://www.w3.org/2000/svg"
 width="4000.000000pt" height="4000.000000pt" viewBox="0 0 4000.000000 4000.000000"
 preserveAspectRatio="xMidYMid meet">

<g transform="translate(0.000000,4000.000000) scale(0.100000,-0.100000)"
fill="#000000" stroke="none">
<path d="M19570 34033 c-3330 -103 -6470 -1272 -9015 -3357 -631 -517 -1279
-1146 -1820 -1766 -694 -795 -1324 -1697 -1832 -2625 -1379 -2517 -2005 -5420
-1788 -8295 115 -1510 450 -2970 1007 -4382 49 -125 93 -230 98 -233 8 -5
2232 1243 2252 1263 4 4 -39 144 -96 312 -669 1993 -849 4082 -530 6155 472
3069 2021 5848 4394 7884 2107 1809 4722 2882 7520 3086 348 25 799 38 1113
31 l297 -6 0 945 0 945 -22 4 c-35 8 -356 25 -643 36 -233 9 -709 10 -935 3z"/>
<path d="M27770 30936 l0 -926 138 -91 c1209 -808 2307 -1849 3188 -3024 741
-988 1336 -2078 1769 -3240 690 -1852 947 -3833 754 -5815 -363 -3740 -2330
-7132 -5409 -9327 -1854 -1321 -4060 -2137 -6335 -2342 -460 -42 -569 -46
-1190 -46 -622 0 -734 4 -1189 46 -2620 239 -5097 1265 -7116 2947 -528 440
-1101 1003 -1551 1527 -587 683 -1087 1402 -1520 2186 -139 251 -296 556 -289
562 3 2 331 108 729 235 l725 231 2055 -1181 c1131 -649 2070 -1188 2086
-1198 l30 -18 1235 2344 c679 1290 1238 2350 1241 2355 3 6 1322 -427 3275
-1075 1797 -597 3269 -1084 3270 -1083 1 1 310 1480 688 3287 378 1807 690
3291 694 3298 9 17 4055 2012 4063 2004 4 -4 93 -244 200 -534 106 -290 194
-526 196 -525 32 33 2520 3113 2517 3116 -6 7 -3857 370 -3863 365 -2 -2 72
-204 164 -449 92 -246 165 -448 163 -449 -1 -1 -1096 -539 -2433 -1195 -1336
-657 -2433 -1196 -2436 -1200 -4 -3 -266 -1241 -583 -2751 -318 -1509 -578
-2745 -579 -2747 -2 -1 -4385 1452 -5583 1851 l-281 93 -1278 -2431 c-703
-1337 -1281 -2434 -1284 -2438 -4 -4 -760 436 -1681 977 -921 542 -1681 983
-1688 980 -20 -7 -5426 -3057 -5437 -3067 -5 -4 11 -2 35 7 25 8 322 102 660
210 338 108 621 198 628 200 8 3 27 -25 51 -79 57 -122 256 -500 389 -736 577
-1024 1268 -1970 2077 -2840 168 -181 629 -642 795 -795 1923 -1776 4217
-2994 6753 -3584 1779 -415 3682 -498 5482 -240 2674 382 5139 1447 7225 3119
463 371 764 643 1231 1109 463 464 742 773 1109 1231 2473 3086 3611 7021
3174 10980 -229 2077 -894 4083 -1956 5899 -419 717 -946 1458 -1496 2105
-475 558 -1058 1146 -1612 1627 -593 514 -1344 1063 -1987 1453 -10 6 -13
-181 -13 -918z"/>
</g>
</svg>
