<svg xmlns="http://www.w3.org/2000/svg" version="1.0" width="361.000000pt" height="276.000000pt" viewBox="0 0 361.000000 276.000000" preserveAspectRatio="xMidYMid meet" style="&#10;    color: white;&#10;">

<g transform="translate(0.000000,276.000000) scale(0.100000,-0.100000)" fill="#ffffff" stroke="none" style="&#10;    fill: #ffffff;&#10;">
<path d="M1435 2695 c-262 -48 -490 -171 -678 -364 -231 -238 -342 -498 -354 -827 -4 -118 -2 -175 12 -255 47 -282 169 -514 372 -710 172 -165 373 -273 603 -324 119 -26 347 -31 471 -11 268 45 496 162 689 355 257 257 386 596 366 962 -7 134 -16 187 -58 319 -140 439 -525 777 -976 855 -103 18 -349 18 -447 0z m315 -215 c177 -19 352 -80 460 -161 l45 -34 -180 -7 c-144 -6 -197 -12 -264 -31 l-84 -23 49 -28 c27 -16 76 -46 109 -67 59 -37 62 -38 115 -29 86 14 324 6 405 -15 77 -20 115 -48 147 -108 28 -55 19 -67 -46 -67 -85 0 -272 -36 -371 -71 -113 -39 -208 -87 -310 -154 -116 -77 -142 -101 -130 -118 31 -45 149 -172 159 -171 6 1 45 26 87 56 155 111 341 181 524 198 154 14 182 13 205 -10 19 -19 20 -31 18 -153 l-3 -132 -50 -7 c-27 -4 -86 -18 -130 -30 l-80 -23 0 -42 c1 -24 2 -90 3 -147 l2 -105 72 25 c92 31 112 31 102 2 -25 -83 -122 -224 -218 -317 -41 -39 -79 -71 -85 -71 -17 0 -13 33 9 89 11 28 29 97 41 153 37 183 17 455 -48 626 -9 25 -22 42 -32 42 -30 0 -184 -65 -217 -91 -8 -6 -4 -33 13 -91 13 -45 26 -114 30 -154 l6 -71 -57 -46 c-35 -28 -63 -44 -72 -40 -9 3 -33 44 -55 91 -57 125 -142 244 -249 352 -100 101 -209 190 -233 190 -8 0 -21 -8 -29 -17 -29 -36 -98 -162 -98 -182 0 -12 21 -36 58 -64 77 -60 189 -178 239 -252 88 -131 159 -302 149 -358 -14 -74 -107 -118 -174 -83 -75 39 -81 119 -19 251 20 42 37 83 37 90 0 16 -107 160 -142 193 l-25 23 -26 -43 c-13 -24 -41 -75 -61 -115 -19 -39 -40 -74 -45 -78 -6 -3 -45 20 -88 52 -133 99 -249 153 -453 213 l-125 36 -3 90 c-5 127 5 192 30 205 18 10 177 0 275 -17 30 -6 33 -3 59 47 15 30 44 80 65 111 36 52 38 58 22 66 -26 14 -164 41 -244 48 -94 9 -100 19 -54 94 59 97 80 105 305 104 172 0 191 -2 279 -27 159 -47 327 -144 421 -242 56 -59 60 -60 142 -17 40 21 88 44 106 50 17 6 32 15 32 20 0 15 -125 128 -201 181 -107 75 -240 137 -374 172 -101 27 -144 33 -267 37 -82 2 -148 9 -148 13 0 15 84 70 153 100 115 51 265 87 407 98 8 0 58 -4 110 -9z m-861 -1500 c189 -95 355 -244 455 -408 55 -93 61 -116 29 -120 -19 -3 -30 8 -60 59 -57 93 -157 210 -231 271 -92 74 -132 101 -140 94 -3 -4 2 -37 12 -74 28 -99 30 -112 17 -112 -42 0 -219 229 -246 318 -11 39 50 29 164 -28z"/>
<path d="M1250 1929 c-138 -140 -245 -325 -294 -507 l-24 -90 117 -60 118 -61 13 72 c13 77 59 217 93 282 54 107 154 233 242 305 30 25 55 49 55 53 0 16 -167 87 -204 87 -32 0 -45 -9 -116 -81z"/>
</g>
</svg>